<svg xmlns="http://www.w3.org/2000/svg" xmlns:xlink="http://www.w3.org/1999/xlink" xmlns:lucid="lucid" width="1460" height="580"><g transform="translate(-200 -100)" lucid:page-tab-id="iSEaL51U2QEH"><path d="M0 0h1870.4v1323.2H0z" fill="#fff"/><path d="M991.5 350h4.9m4.9 0h9.8m4.9 0h9.8m4.9 0h9.8m4.88 0h9.8m4.9 0h9.8m4.9 0h9.8m4.9 0h9.8m4.9 0h9.78m4.9 0h9.8m4.9 0h9.8m4.9 0h9.8m4.9 0h9.8m4.9 0h9.78m4.9 0h9.8m4.9 0h9.8m4.9 0h9.8m4.9 0h9.78m4.9 0h9.8m4.9 0h9.8m4.9 0h9.8m4.9 0h9.8m4.9 0h9.78m4.9 0h4.9" stroke="#000" fill="none"/><path d="M991.5 350.5H991l.02-.5-.02-.5h.53zM1330 350.5h-.5v-1h.5z"/><path d="M631.5 630h5.06m5.06 0h10.1m5.07 0h10.1m5.07 0h10.1m5.07 0h10.12m5.06 0h10.1m5.07 0h10.1m5.07 0h10.1m5.07 0h10.12m5.06 0h10.1m5.07 0h10.1m5.07 0h10.1m5.07 0h10.12m5.06 0h10.1m5.07 0H849m5.07 0h10.1m5.07 0h10.12m5.06 0h10.1m5.07 0h10.1m5.07 0h10.1m5.07 0h10.12m5.06 0h10.1m5.07 0h10.1m5.07 0h10.1m5.07 0h10.12m5.06 0h10.1m5.07 0h10.1m5.07 0h10.1m5.07 0h10.12m5.06 0h10.1m5.07 0h10.1m5.07 0h10.1m5.07 0h10.12m5.06 0h10.1m5.07 0h10.1m5.07 0h10.1m5.07 0h10.12m5.06 0h10.1m5.07 0h10.1m5.07 0h10.1m5.07 0h5.06" stroke="#000" fill="none"/><path d="M631.5 630.5H631l.02-.5-.02-.5h.53zM1239 630l.02.5h-.53v-1h.52z"/><path d="M1400 600h240v60h-240z" stroke="#000" stroke-opacity="0" stroke-width="2" fill="#fff" fill-opacity="0"/><use xlink:href="#a" transform="matrix(1,0,0,1,1405,605) translate(0 30.025)"/><use xlink:href="#b" transform="matrix(1,0,0,1,1405,605) translate(20 30.025)"/><use xlink:href="#c" transform="matrix(1,0,0,1,1405,605) translate(65.9 30.025)"/><path d="M320 630c0 16.56-22.4 30-50 30s-50-13.44-50-30c0-16.56 22.4-30 50-30s50 13.44 50 30zM475 630c0 16.56-22.4 30-50 30s-50-13.44-50-30c0-16.56 22.4-30 50-30s50 13.44 50 30z" stroke="#999" stroke-width="2" fill-opacity="0"/><path d="M322 630h51" stroke="#b2b2b2" stroke-width="2" fill="none"/><path d="M322.03 631h-1.08l.05-1-.03-1h1.06zM374 630l.03 1h-1.06v-2h1.08z" fill="#b2b2b2"/><path d="M322 630h51M322.03 630H321M372.97 630H374M528 630h-51" stroke="#b2b2b2" stroke-width="2" fill="none"/><path d="M529 630l.03 1h-1.06v-2h1.08zM477.03 631h-1.08l.05-1-.03-1h1.06z" fill="#b2b2b2"/><path d="M528 630h-51M527.97 630H529M477.03 630H476" stroke="#b2b2b2" stroke-width="2" fill="none"/><path d="M630 630c0 16.56-22.4 30-50 30s-50-13.44-50-30c0-16.56 22.4-30 50-30s50 13.44 50 30zM1060 490c0 16.56-22.4 30-50 30s-50-13.44-50-30c0-16.56 22.4-30 50-30s50 13.44 50 30zM700 490c0 16.56-22.4 30-50 30s-50-13.44-50-30c0-16.56 22.4-30 50-30s50 13.44 50 30z" stroke="#999" stroke-width="2" fill-opacity="0"/><path d="M702 490h256" stroke="#b2b2b2" stroke-width="2" fill="none"/><path d="M702.03 491h-1.08l.05-1-.03-1h1.06zM959 490l.03 1h-1.06v-2h1.08z" fill="#b2b2b2"/><path d="M1061.5 490h5.4m5.38 0h10.78m5.38 0h10.78m5.4 0h10.77m5.38 0h10.78m5.38 0h10.78m5.4 0h5.38" stroke="#000" fill="none"/><path d="M1061.5 490.5h-.52l.02-.5-.02-.5h.53zM1159 490l.02.5h-.53v-1h.52z"/><path d="M1380 460h240v60h-240z" stroke="#000" stroke-opacity="0" stroke-width="2" fill="#fff" fill-opacity="0"/><use xlink:href="#a" transform="matrix(1,0,0,1,1385,465) translate(0 30.025)"/><use xlink:href="#d" transform="matrix(1,0,0,1,1385,465) translate(20 30.025)"/><use xlink:href="#c" transform="matrix(1,0,0,1,1385,465) translate(92.95 30.025)"/><path d="M990 350c0 16.56-22.4 30-50 30s-50-13.44-50-30c0-16.56 22.4-30 50-30s50 13.44 50 30zM820 350c0 16.56-22.4 30-50 30s-50-13.44-50-30c0-16.56 22.4-30 50-30s50 13.44 50 30z" stroke="#999" stroke-width="2" fill-opacity="0"/><path d="M822 350h66" stroke="#b2b2b2" stroke-width="2" fill="none"/><path d="M822.03 351h-1.08l.05-1-.03-1h1.06zM889 350l.03 1h-1.06v-2h1.08z" fill="#b2b2b2"/><path d="M1330 320h240v60h-240z" stroke="#000" stroke-opacity="0" stroke-width="2" fill="#fff" fill-opacity="0"/><use xlink:href="#a" transform="matrix(1,0,0,1,1335,325) translate(0 30.025)"/><use xlink:href="#e" transform="matrix(1,0,0,1,1335,325) translate(20 30.025)"/><use xlink:href="#c" transform="matrix(1,0,0,1,1335,325) translate(89.85000000000001 30.025)"/><path d="M580.02 598.5l.04-1.52.2-1.9.28-1.82.4-1.74.5-1.7.62-1.67.73-1.66.86-1.68 1.03-1.7 1.2-1.75 1.47-1.83 1.78-1.95 2.2-2.14 2.84-2.4 3.88-2.9 6.27-4.06 27.57-16.26 3.9-2.9 2.83-2.4 2.2-2.13 1.78-1.94 1.46-1.83 1.2-1.75.22-.35" stroke="#666" fill="none"/><path d="M580.52 598.5l-.02.52-.5-.02-.5.02.02-.55z" fill="#666"/><path d="M649.55 522.56l.5 15-8.9-2.58z" stroke="#666" fill="#666"/><path d="M650 458.5l.02-.3.04-.76.08-.75.1-.75.15-.73.16-.73.2-.74.24-.72.27-.73.3-.72.36-.74.4-.75.44-.78.5-.78.55-.8.64-.85.7-.87.83-.9.92-.95 1.06-1 1.24-1.06 1.43-1.14 1.7-1.23 2.03-1.35 2.47-1.5 3.06-1.68 3.96-1.95 5.33-2.37 8-3.15 53.6-18.65 5.34-2.37 3.95-1.95 3.05-1.7 2.47-1.48 2.03-1.35 1.7-1.23 1.43-1.14 1.24-1.06 1.06-1 .3-.3" stroke="#999" fill="none"/><path d="M650.5 458.5v.52l-.5-.02-.5.02v-.54z" fill="#999"/><path d="M769.33 382.47l-1.7 14.9-8.43-3.84z" stroke="#999" fill="#999"/><path d="M650 270h240v60H650z" stroke="#000" stroke-opacity="0" stroke-width="2" fill="#fff" fill-opacity="0"/><use xlink:href="#f" transform="matrix(1,0,0,1,655,275) translate(76.55 30.025)"/><use xlink:href="#g" transform="matrix(1,0,0,1,655,275) translate(143.45 30.025)"/><path d="M820 210c0 16.56-22.4 30-50 30s-50-13.44-50-30c0-16.56 22.4-30 50-30s50 13.44 50 30zM1000 210c0 16.56-22.4 30-50 30s-50-13.44-50-30c0-16.56 22.4-30 50-30s50 13.44 50 30z" stroke="#999" stroke-width="2" fill-opacity="0"/><path d="M650 120h240v60H650z" stroke="#000" stroke-opacity="0" stroke-width="2" fill="#fff" fill-opacity="0"/><use xlink:href="#f" transform="matrix(1,0,0,1,655,125) translate(76.55 30.025)"/><use xlink:href="#h" transform="matrix(1,0,0,1,655,125) translate(143.45 30.025)"/><path d="M822 210h76" stroke="#b2b2b2" stroke-width="2" fill="none"/><path d="M822.03 211h-1.08l.05-1-.03-1h1.06zM899 210l.03 1h-1.06v-2h1.08z" fill="#b2b2b2"/><path d="M1001.5 210h5.04m5.05 0h10.07m5.05 0h10.08m5.05 0h10.1m5.03 0h10.1m5.03 0h10.1m5.04 0h10.1m5.03 0h10.1m5.03 0h10.1m5.03 0h10.1m5.03 0h10.1m5.03 0h10.08m5.04 0h10.1m5.03 0h10.1m5.03 0h10.1m5.03 0h10.1m5.04 0h10.1m5.03 0h10.1m5.03 0h10.1m5.03 0h10.1m5.04 0h10.08m5.05 0h10.08m5.05 0h10.08m5.06 0h5.04" stroke="#000" fill="none"/><path d="M1001.5 210.5h-.52l.02-.5-.02-.5h.53zM1350 210.5h-.5v-1h.5z"/><path d="M1350 180h240v60h-240z" stroke="#000" stroke-opacity="0" stroke-width="2" fill="#fff" fill-opacity="0"/><use xlink:href="#a" transform="matrix(1,0,0,1,1355,185) translate(0 30.025)"/><use xlink:href="#e" transform="matrix(1,0,0,1,1355,185) translate(20 30.025)"/><use xlink:href="#c" transform="matrix(1,0,0,1,1355,185) translate(89.85000000000001 30.025)"/><path d="M650.12 458.5l1.63-6.37 1.63-7.75 1.48-8.9 1.3-10.47 1.03-12.76.64-16.76-.12-27.43-1.62-71.4.5-12.85.74-9.2.9-7.2.96-5.84 1.04-4.92 1.07-4.22 1.1-3.68 1.13-3.25 1.15-2.92 1.16-2.62 1.17-2.38 1.2-2.18 1.2-2 1.24-1.86 1.25-1.72 1.26-1.62 1.3-1.5 1.33-1.43 1.36-1.34 1.4-1.27 1.45-1.2 1.5-1.15 1.57-1.08 1.62-1.03 1.7-1 1.77-.93 1.88-.9 2-.83 2.1-.8 2.26-.73 2.43-.67 2.62-.62 1.26-.23M650.13 458.5l-.13.5" stroke="#999" fill="none"/><path d="M717.4 210.15l-13.8 5.9-.84-9.24z" stroke="#999" fill="#999"/><path d="M1340 630c0 16.56-22.4 30-50 30s-50-13.44-50-30c0-16.56 22.4-30 50-30s50 13.44 50 30z" stroke="#999" stroke-width="2" fill-opacity="0"/><path d="M631.5 630h5.03m5.02 0h10.05m5.02 0h10.05m5.03 0h10.05m5.02 0h10.05m5.03 0h10.05m5.02 0h10.05m5.02 0h10.04m5.03 0h10.05m5.02 0h10.05m5.02 0h10.05m5.02 0h10.04m5.02 0h10.05m5.04 0h10.05m5 0h10.06m5.03 0h10.04m5.02 0h10.05m5.03 0h10.05m5.03 0h10.06m5.02 0h10.05m5.03 0H938m5.03 0h10.05m5.02 0h10.05m5.03 0h10.05m5.02 0h10.05m5.03 0h10.05m5.02 0h10.05m5.02 0h5.03M631.5 630h-.5M1038.5 630h.5M1341.5 630h4.83m4.84 0h9.66m4.84 0h9.66m4.84 0h9.66m4.84 0h4.83" stroke="#000" fill="none"/><path d="M1341.5 630.5h-.52l.02-.5-.02-.5h.53zM1400 630.5h-.5v-1h.5z"/><path d="M940.02 381.5l.04 1.52.2 1.9.28 1.82.4 1.74.5 1.7.62 1.67.73 1.66.86 1.68 1.03 1.7 1.2 1.75 1.47 1.83 1.78 1.95 2.2 2.14 2.84 2.4 3.88 2.9 6.27 4.06 27.57 16.26 3.9 2.9 2.83 2.4 2.2 2.13 1.78 1.94 1.46 1.83 1.2 1.75.22.35" stroke="#999" fill="none"/><path d="M940 381l.5-.02.02.52-1 .03-.02-.55z" fill="#999"/><path d="M1009.55 457.44l-8.4-12.42 8.9-2.57z" stroke="#999" fill="#999"/><path d="M1260 490c0 16.56-22.4 30-50 30s-50-13.44-50-30c0-16.56 22.4-30 50-30s50 13.44 50 30z" stroke="#999" stroke-width="2" fill-opacity="0"/><path d="M1261.5 490h4.92m4.9 0h9.85m4.9 0h9.85m4.9 0h9.85m4.9 0h9.85m4.9 0h9.85m4.9 0h9.85m4.9 0h9.85m4.9 0h4.93" stroke="#000" fill="none"/><path d="M1261.5 490.5h-.52l.02-.5-.02-.5h.53zM1380 490.5h-.5v-1h.5z"/><path d="M1210.02 521.5l.03 1.23.16 1.65.26 1.58.34 1.53.43 1.5.53 1.47.64 1.48.75 1.5.9 1.5 1.04 1.56 1.24 1.63 1.5 1.7 1.83 1.85 2.27 2 2.92 2.3 3.96 2.7 6.04 3.6 36.32 19.03 3.96 2.73 2.92 2.28 2.27 2.02 1.83 1.84 1.5 1.7 1.25 1.63.13.17" stroke="#999" fill="none"/><path d="M1210 521l.5-.02.02.52-1 .03-.02-.55z" fill="#999"/><path d="M1289.5 597.46l-8.8-12.14 8.8-2.86z" stroke="#999" fill="#999"/><path d="M950 241.5l.06 2.33.17 2.73.28 2.67.4 2.6.48 2.57.6 2.52.7 2.5.8 2.48.92 2.48 1.05 2.48 1.17 2.5 1.32 2.52 1.48 2.56 1.65 2.6 1.86 2.67 2.1 2.76 2.34 2.84 2.67 2.96 3.04 3.1 3.5 3.28 4.03 3.5 4.75 3.74 5.65 4.1 6.86 4.55 8.6 5.2 11.27 6.18 16.36 8.1 38.92 17.07 52.9 22.93 16.35 8.1 11.28 6.18 8.6 5.2L1169 394l5.65 4.1 4.74 3.75 4.03 3.5 3.5 3.26 3.03 3.1 2.67 2.97 2.35 2.84 2.1 2.75 1.85 2.66 1.65 2.6 1.48 2.56 1.32 2.52 1.17 2.5 1.05 2.48.92 2.48.8 2.48.62 2.2" stroke="#999" fill="none"/><path d="M950 241l.5-.02v.53l-1 .03v-.55z" fill="#999"/><path d="M1209.8 457.4l-6.4-13.57 9.2-1.17z" stroke="#999" fill="#999"/><defs><path d="M230 0l2-204L168 0h-37L68-204 70 0H24v-248h70l56 185 57-185h69V0h-46" id="i"/><path d="M133-34C117-15 103 5 69 4 32 3 11-16 11-54c-1-60 55-63 116-61 1-26-3-47-28-47-18 1-26 9-28 27l-52-2c7-38 36-58 82-57s74 22 75 68l1 82c-1 14 12 18 25 15v27c-30 8-71 5-69-32zm-48 3c29 0 43-24 42-57-32 0-66-3-65 30 0 17 8 27 23 27" id="j"/><path d="M25-224v-37h50v37H25zM25 0v-190h50V0H25" id="k"/><path d="M135-194c87-1 58 113 63 194h-50c-7-57 23-157-34-157-59 0-34 97-39 157H25l-1-190h47c2 12-1 28 3 38 12-26 28-41 61-42" id="l"/><g id="b"><use transform="matrix(0.05,0,0,0.05,0,0)" xlink:href="#i"/><use transform="matrix(0.05,0,0,0.05,14.950000000000001,0)" xlink:href="#j"/><use transform="matrix(0.05,0,0,0.05,24.950000000000003,0)" xlink:href="#k"/><use transform="matrix(0.05,0,0,0.05,29.950000000000003,0)" xlink:href="#l"/></g><path d="M135-194c52 0 70 43 70 98 0 56-19 99-73 100-30 1-46-15-58-35L72 0H24l1-261h50v104c11-23 29-37 60-37zM114-30c31 0 40-27 40-66 0-37-7-63-39-63s-41 28-41 65c0 36 8 64 40 64" id="m"/><path d="M135-150c-39-12-60 13-60 57V0H25l-1-190h47c2 13-1 29 3 40 6-28 27-53 61-41v41" id="n"/><path d="M190-63c-7 42-38 67-86 67-59 0-84-38-90-98-12-110 154-137 174-36l-49 2c-2-19-15-32-35-32-30 0-35 28-38 64-6 74 65 87 74 30" id="o"/><path d="M114-157C55-157 80-60 75 0H25v-261h50l-1 109c12-26 28-41 61-42 86-1 58 113 63 194h-50c-7-57 23-157-34-157" id="p"/><g id="c"><use transform="matrix(0.05,0,0,0.05,0,0)" xlink:href="#m"/><use transform="matrix(0.05,0,0,0.05,10.950000000000001,0)" xlink:href="#n"/><use transform="matrix(0.05,0,0,0.05,17.950000000000003,0)" xlink:href="#j"/><use transform="matrix(0.05,0,0,0.05,27.950000000000003,0)" xlink:href="#l"/><use transform="matrix(0.05,0,0,0.05,38.900000000000006,0)" xlink:href="#o"/><use transform="matrix(0.05,0,0,0.05,48.900000000000006,0)" xlink:href="#p"/></g><path d="M240-174c0 40-23 61-54 70L253 0h-59l-57-94H76V0H24v-248c93 4 217-23 216 74zM76-134c48-2 112 12 112-38 0-48-66-32-112-35v73" id="q"/><path d="M185-48c-13 30-37 53-82 52C43 2 14-33 14-96s30-98 90-98c62 0 83 45 84 108H66c0 31 8 55 39 56 18 0 30-7 34-22zm-45-69c5-46-57-63-70-21-2 6-4 13-4 21h74" id="r"/><path d="M25 0v-261h50V0H25" id="s"/><path d="M137-138c1-29-70-34-71-4 15 46 118 7 119 86 1 83-164 76-172 9l43-7c4 19 20 25 44 25 33 8 57-30 24-41C81-84 22-81 20-136c-2-80 154-74 161-7" id="t"/><g id="d"><use transform="matrix(0.05,0,0,0.05,0,0)" xlink:href="#q"/><use transform="matrix(0.05,0,0,0.05,12.950000000000001,0)" xlink:href="#r"/><use transform="matrix(0.05,0,0,0.05,22.950000000000003,0)" xlink:href="#s"/><use transform="matrix(0.05,0,0,0.05,27.950000000000003,0)" xlink:href="#r"/><use transform="matrix(0.05,0,0,0.05,37.95,0)" xlink:href="#j"/><use transform="matrix(0.05,0,0,0.05,47.95,0)" xlink:href="#t"/><use transform="matrix(0.05,0,0,0.05,57.95,0)" xlink:href="#r"/></g><path d="M76-208v77h127v40H76V0H24v-248h183v40H76" id="u"/><path d="M115-3C79 11 28 4 28-45v-112H4v-33h27l15-45h31v45h36v33H77v99c-1 23 16 31 38 25v30" id="v"/><path d="M85 4C-2 5 27-109 22-190h50c7 57-23 150 33 157 60-5 35-97 40-157h50l1 190h-47c-2-12 1-28-3-38-12 25-28 42-61 42" id="w"/><g id="e"><use transform="matrix(0.05,0,0,0.05,0,0)" xlink:href="#u"/><use transform="matrix(0.05,0,0,0.05,10.950000000000001,0)" xlink:href="#r"/><use transform="matrix(0.05,0,0,0.05,20.950000000000003,0)" xlink:href="#j"/><use transform="matrix(0.05,0,0,0.05,30.950000000000003,0)" xlink:href="#v"/><use transform="matrix(0.05,0,0,0.05,36.900000000000006,0)" xlink:href="#w"/><use transform="matrix(0.05,0,0,0.05,47.85000000000001,0)" xlink:href="#n"/><use transform="matrix(0.05,0,0,0.05,54.85,0)" xlink:href="#r"/></g><path d="M63-220v92h138v28H63V0H30v-248h175v28H63" id="x"/><path d="M100-194c63 0 86 42 84 106H49c0 40 14 67 53 68 26 1 43-12 49-29l28 8c-11 28-37 45-77 45C44 4 14-33 15-96c1-61 26-98 85-98zm52 81c6-60-76-77-97-28-3 7-6 17-6 28h103" id="y"/><path d="M141-36C126-15 110 5 73 4 37 3 15-17 15-53c-1-64 63-63 125-63 3-35-9-54-41-54-24 1-41 7-42 31l-33-3c5-37 33-52 76-52 45 0 72 20 72 64v82c-1 20 7 32 28 27v20c-31 9-61-2-59-35zM48-53c0 20 12 33 32 33 41-3 63-29 60-74-43 2-92-5-92 41" id="z"/><path d="M59-47c-2 24 18 29 38 22v24C64 9 27 4 27-40v-127H5v-23h24l9-43h21v43h35v23H59v120" id="A"/><path d="M84 4C-5 8 30-112 23-190h32v120c0 31 7 50 39 49 72-2 45-101 50-169h31l1 190h-30c-1-10 1-25-2-33-11 22-28 36-60 37" id="B"/><path d="M114-163C36-179 61-72 57 0H25l-1-190h30c1 12-1 29 2 39 6-27 23-49 58-41v29" id="C"/><g id="f"><use transform="matrix(0.05,0,0,0.05,0,0)" xlink:href="#x"/><use transform="matrix(0.05,0,0,0.05,10.950000000000001,0)" xlink:href="#y"/><use transform="matrix(0.05,0,0,0.05,20.950000000000003,0)" xlink:href="#z"/><use transform="matrix(0.05,0,0,0.05,30.950000000000003,0)" xlink:href="#A"/><use transform="matrix(0.05,0,0,0.05,35.95,0)" xlink:href="#B"/><use transform="matrix(0.05,0,0,0.05,45.95,0)" xlink:href="#C"/><use transform="matrix(0.05,0,0,0.05,51.900000000000006,0)" xlink:href="#y"/></g><path d="M27 0v-27h64v-190l-56 39v-29l58-41h29v221h61V0H27" id="D"/><use transform="matrix(0.05,0,0,0.05,0,0)" xlink:href="#D" id="g"/><path d="M101-251c82-7 93 87 43 132L82-64C71-53 59-42 53-27h129V0H18c2-99 128-94 128-182 0-28-16-43-45-43s-46 15-49 41l-32-3c6-41 34-60 81-64" id="E"/><use transform="matrix(0.05,0,0,0.05,0,0)" xlink:href="#E" id="h"/></defs></g></svg>