<svg height="512" viewBox="0 0 128 128" width="512" xmlns="http://www.w3.org/2000/svg"><g><g fill="#3ba9fd"><circle cx="64.191" cy="64" r="12"/><circle cx="111.375" cy="52.419" r="6"/><circle cx="78.191" cy="111.035" r="6"/><circle cx="16.625" cy="52.419" r="6"/></g><g fill="#051720"><path d="m53.025 58.842a1.75 1.75 0 0 0 2.426-.49 10.3 10.3 0 0 1 2.575-2.676 1.75 1.75 0 1 0 -2.045-2.84 13.771 13.771 0 0 0 -3.446 3.58 1.75 1.75 0 0 0 .49 2.426z"/><path d="m64 50.25a1.75 1.75 0 0 0 0 3.5 10.25 10.25 0 1 1 -10.25 10.25c0-.119 0-.237.006-.355a1.75 1.75 0 0 0 -1.687-1.811 1.726 1.726 0 0 0 -1.811 1.687c-.005.16-.008.319-.008.479a13.75 13.75 0 1 0 13.75-13.75z"/><path d="m67.014 70.938a1.74 1.74 0 0 0 .88-.239 7.785 7.785 0 0 0 3.856-6.699 1.75 1.75 0 0 0 -3.5 0 4.274 4.274 0 0 1 -2.119 3.676 1.75 1.75 0 0 0 .883 3.262z"/><path d="m109.23 59.91a7.8 7.8 0 0 0 1.954.256 7.751 7.751 0 0 0 5.48-13.228c-.127-.126-.262-.24-.4-.357 1.3-4.714 1-8.82-.953-12.206-4.2-7.28-15.229-9.665-30.362-6.652-4.973-14.612-12.557-22.973-20.949-22.973s-15.975 8.36-20.953 22.974c-15.136-3.015-26.162-.629-30.361 6.65-1.893 3.27-2.225 7.379-1.018 11.94a7.75 7.75 0 0 0 7.039 13.515c1.038 1.381 2.175 2.778 3.4 4.177-10.169 11.604-13.618 22.347-9.422 29.619 3.015 5.227 9.541 7.938 18.583 7.938a61.159 61.159 0 0 0 11.777-1.292c4.977 14.616 12.562 22.979 20.955 22.979 3.792 0 7.532-1.778 10.893-5.124a7.746 7.746 0 0 0 8.587-12.571c-.125-.126-.265-.233-.4-.349.657-1.551 1.285-3.2 1.878-4.935a61.023 61.023 0 0 0 11.772 1.292c9.041 0 15.568-2.712 18.583-7.938 4.2-7.272.747-18.015-9.42-29.618 1.182-1.347 2.296-2.717 3.337-4.097zm6.2-7.491a4.25 4.25 0 0 1 -7.252 3.005 4.25 4.25 0 1 1 7.253-3.005zm-3.148-16.3c1.369 2.377 1.633 5.332.809 8.8a7.745 7.745 0 0 0 -7.391 12.981c.126.127.261.241.394.358q-1.218 1.586-2.572 3.148a105.745 105.745 0 0 0 -13.962-12.161 107.039 107.039 0 0 0 -3.54-18.169c13.188-2.55 22.941-.711 26.263 5.047zm-22.282 17.847a98.792 98.792 0 0 1 11.162 10.034 98.907 98.907 0 0 1 -11.162 10.034c.247-3.3.378-6.663.378-10.034s-.129-6.73-.378-10.034zm-3.12 10.034c0 4.334-.22 8.645-.638 12.837-3.391 2.44-7.017 4.789-10.807 6.977-3.75 2.167-7.594 4.137-11.434 5.878-3.843-1.742-7.686-3.712-11.436-5.878-3.788-2.187-7.413-4.535-10.807-6.977-.418-4.191-.638-8.5-.638-12.837s.22-8.645.638-12.837c3.391-2.44 7.017-4.789 10.807-6.977 3.75-2.167 7.594-4.137 11.434-5.878 3.843 1.742 7.686 3.712 11.436 5.878 3.788 2.187 7.413 4.535 10.807 6.977.418 4.191.638 8.503.638 12.837zm-1.189-17.5c-2.722-1.855-5.566-3.649-8.5-5.347-2.921-1.683-5.891-3.253-8.881-4.694a100.265 100.265 0 0 1 14.279-4.641 100.179 100.179 0 0 1 3.102 14.682zm-21.691-38.25c6.638 0 13.113 7.529 17.515 20.225a107.329 107.329 0 0 0 -17.516 6 107.245 107.245 0 0 0 -17.514-6c4.403-12.697 10.877-20.225 17.515-20.225zm-18.589 23.568a100.213 100.213 0 0 1 14.278 4.641c-2.986 1.443-5.958 3.011-8.875 4.7-2.94 1.7-5.785 3.492-8.505 5.347a100.151 100.151 0 0 1 3.102-14.688zm-25.973 23.606a4.255 4.255 0 0 1 -6.009 0 4.248 4.248 0 1 1 6.01 0zm2.308 2.627c.055-.052.114-.1.168-.153a7.746 7.746 0 0 0 -7.023-13.069c-.808-3.426-.538-6.35.825-8.7 3.323-5.761 13.076-7.6 26.264-5.049a107.109 107.109 0 0 0 -3.541 18.17 105.667 105.667 0 0 0 -13.963 12.15q-1.461-1.683-2.73-3.349zm16.254 15.983a98.792 98.792 0 0 1 -11.162-10.034 98.907 98.907 0 0 1 11.162-10.034c-.247 3.3-.378 6.663-.378 10.034s.129 6.73.378 10.034zm-22.284 17.841c-3.316-5.752-.034-15.121 8.765-25.275a105.714 105.714 0 0 0 13.959 12.155 107.039 107.039 0 0 0 3.54 18.169c-13.189 2.548-22.942.71-26.264-5.049zm26.593-10.375c2.722 1.855 5.566 3.649 8.505 5.347 2.916 1.683 5.886 3.253 8.876 4.694a100.265 100.265 0 0 1 -14.279 4.641 100.179 100.179 0 0 1 -3.102-14.682zm38.7 32.541a4.247 4.247 0 0 1 -7.231-3.427 1.75 1.75 0 1 0 -3.483-.343 7.72 7.72 0 0 0 1.779 5.742c-2.6 2.479-5.311 3.738-8.07 3.738-6.638 0-13.113-7.529-17.515-20.225a107.329 107.329 0 0 0 17.516-6 107.259 107.259 0 0 0 17.518 6c-.49 1.406-1 2.752-1.536 4.027a7.774 7.774 0 0 0 -3.907-.024 1.75 1.75 0 1 0 .865 3.391 4.279 4.279 0 0 1 4.064 1.109 4.257 4.257 0 0 1 0 6.011zm1.584-17.858a100.254 100.254 0 0 1 -14.278-4.641c2.985-1.443 5.958-3.011 8.875-4.695 2.94-1.7 5.785-3.492 8.5-5.347a100.2 100.2 0 0 1 -3.101 14.682zm29.7-4.307c-3.323 5.76-13.076 7.6-26.264 5.049a107.109 107.109 0 0 0 3.541-18.17 105.662 105.662 0 0 0 13.949-12.155c8.799 10.154 12.081 19.523 8.765 25.275z"/></g></g></svg>